<svg id="grid" xmlns="http://www.w3.org/2000/svg" viewBox="0 0 1280 637"><title>grid</title><rect width="160" height="160"/><rect x="168" width="160" height="160"/><rect x="336" width="160" height="160"/><rect x="504" width="160" height="160"/><rect x="672" width="160" height="160"/><rect x="840" width="160" height="160"/><rect x="1008" width="160" height="160"/><rect y="168" width="160" height="160"/><rect x="168" y="168" width="160" height="160"/><rect x="336" y="168" width="160" height="160"/><rect x="504" y="168" width="160" height="160"/><rect x="672" y="168" width="160" height="160"/><rect x="840" y="168" width="160" height="160"/><rect x="1008" y="168" width="160" height="160"/><rect y="336" width="160" height="160"/><rect x="168" y="336" width="160" height="160"/><rect x="336" y="336" width="160" height="160"/><rect x="504" y="336" width="160" height="160"/><rect x="672" y="336" width="160" height="160"/><rect x="840" y="336" width="160" height="160"/><rect x="1008" y="336" width="160" height="160"/><rect y="504" width="160" height="160"/><rect x="168" y="504" width="160" height="160"/><rect x="336" y="504" width="160" height="160"/><rect x="504" y="504" width="160" height="160"/><rect x="672" y="504" width="160" height="160"/><rect x="840" y="504" width="160" height="160"/><rect x="1008" y="504" width="160" height="160"/><rect y="672" width="160" height="160"/><rect x="168" y="672" width="160" height="160"/><rect x="336" y="672" width="160" height="160"/><rect x="504" y="672" width="160" height="160"/><rect x="672" y="672" width="160" height="160"/><rect x="840" y="672" width="160" height="160"/><rect x="1008" y="672" width="160" height="160"/></svg>